<svg width="57" height="40" viewBox="0 0 57 40" fill="none" xmlns="http://www.w3.org/2000/svg">
<path d="M35.3733 36.7619V36.6105H24.9458V36.7619L24.9477 36.8368C24.9477 37.6757 24.5831 38.4803 23.9341 39.0735C23.2851 39.6667 22.4048 40 21.487 40C20.5692 40 19.689 39.6667 19.04 39.0735C18.391 38.4803 18.0264 37.6757 18.0264 36.8368L18.0282 36.7586V36.6105H16.8395C16.3326 36.6105 15.8411 36.4521 15.4463 36.1615C15.0516 35.8709 14.7775 35.4657 14.6695 35.0131L14.6677 34.9998L7.71909 4.92675L1.78266 4.02321C1.21728 3.91882 0.718429 3.61763 0.391506 3.18326C0.0645842 2.74889 -0.0648063 2.21537 0.030671 1.69541C0.126148 1.17546 0.439016 0.709787 0.903174 0.396785C1.36733 0.0837838 1.94643 -0.0520345 2.51812 0.0180244L2.50719 0.0163605L9.93638 1.14786C10.8411 1.2893 11.5511 1.91496 11.7404 2.71699L11.7422 2.7303L13.002 8.16151L34.6742 9.81218C34.5404 10.4629 34.4722 11.1235 34.4703 11.7857V11.7923C34.4703 12.4612 34.534 13.1168 34.6578 13.7541L34.6469 13.6876C34.0505 13.8594 33.5442 14.226 33.2249 14.7175C32.9055 15.2089 32.7955 15.7907 32.9157 16.3516L32.9139 16.3366L34.2228 24.9726C34.3029 25.5268 34.5796 26.0126 34.9837 26.3787C35.3514 26.7132 35.8557 26.9228 36.4146 26.9278H36.4164C36.5402 26.9278 36.6621 26.9162 36.7786 26.8962L36.7659 26.8979C37.3866 26.7496 37.9224 26.3912 38.2648 25.8953C38.6072 25.3994 38.7306 24.8031 38.61 24.2272L38.6118 24.2422L37.8982 19.5464C39.0308 20.6236 40.3901 21.4801 41.8942 22.0646C43.3984 22.6491 45.0164 22.9495 46.6508 22.9476C46.7291 22.9476 46.8074 22.9476 46.8839 22.9376L47.0532 22.9293L45.8353 29.4221C45.8061 29.5795 45.7171 29.7224 45.5838 29.8256C45.4506 29.9288 45.2818 29.9857 45.1071 29.9862H18.0464L18.6417 32.5604H44.4135C44.987 32.5812 45.5295 32.8039 45.9274 33.182C46.3253 33.5601 46.5477 34.0642 46.5482 34.5888C46.5487 35.1134 46.3271 35.6179 45.9299 35.9966C45.5327 36.3752 44.9906 36.5988 44.4172 36.6205H42.2946V36.7719C42.2946 37.6108 41.93 38.4154 41.281 39.0086C40.632 39.6018 39.7517 39.9351 38.8339 39.9351C37.9161 39.9351 37.0359 39.6018 36.3869 39.0086C35.7379 38.4154 35.3733 37.6108 35.3733 36.7719V36.7619ZM37.8454 36.7619C37.8458 36.8861 37.8744 37.0089 37.9294 37.1224C37.9844 37.236 38.0645 37.3379 38.1649 37.4216C38.2652 37.5054 38.3834 37.5692 38.5121 37.609C38.6408 37.6488 38.7771 37.6637 38.9125 37.6529C39.0478 37.642 39.1792 37.6056 39.2984 37.5458C39.4175 37.4861 39.5218 37.4045 39.6046 37.306C39.6874 37.2076 39.7469 37.0944 39.7794 36.9739C39.8119 36.8533 39.8166 36.7278 39.7933 36.6055V36.6105H37.8636C37.8539 36.6605 37.849 36.7111 37.8491 36.7619H37.8454ZM20.5003 36.7619C20.5007 36.8861 20.5293 37.0089 20.5843 37.1224C20.6393 37.236 20.7195 37.3379 20.8198 37.4216C20.9201 37.5054 21.0383 37.5692 21.167 37.609C21.2957 37.6488 21.4321 37.6637 21.5674 37.6529C21.7028 37.642 21.8342 37.6056 21.9533 37.5458C22.0724 37.4861 22.1767 37.4045 22.2595 37.306C22.3423 37.2076 22.4018 37.0944 22.4343 36.9739C22.4668 36.8533 22.4715 36.7278 22.4482 36.6055V36.6105H20.5167C20.5076 36.6594 20.5033 36.709 20.504 36.7586V36.7619H20.5003ZM27.54 13.6743C26.919 13.8222 26.383 14.1805 26.0405 14.6765C25.698 15.1725 25.5748 15.769 25.6959 16.3449L25.694 16.33L27.0029 24.966C27.083 25.5201 27.3597 26.006 27.7639 26.3721C28.1316 26.7065 28.6359 26.9162 29.1947 26.9212H29.1965C29.3203 26.9212 29.4423 26.9095 29.5588 26.8895L29.5461 26.8912C30.1668 26.7429 30.7026 26.3846 31.045 25.8887C31.3874 25.3928 31.5108 24.7965 31.3902 24.2205L31.392 24.2355L30.0831 15.5995C30.0076 15.0665 29.7398 14.5717 29.3222 14.1934C28.942 13.8463 28.4286 13.6487 27.8913 13.6426H27.8895C27.7639 13.6426 27.6419 13.6543 27.5236 13.6759L27.5363 13.6743H27.54ZM20.3201 13.6743C19.6971 13.8215 19.1592 14.1806 18.8161 14.6782C18.473 15.1758 18.3507 15.7744 18.4742 16.3516L18.4724 16.3366L19.7813 24.9726C19.8614 25.5268 20.1381 26.0126 20.5422 26.3787C20.9099 26.7132 21.4142 26.9228 21.9731 26.9278H21.9749C22.0987 26.9278 22.2207 26.9162 22.3372 26.8962L22.3244 26.8979C22.9457 26.7503 23.4822 26.3921 23.825 25.8961C24.1679 25.4001 24.2913 24.8034 24.1703 24.2272L24.1722 24.2422L22.8614 15.6011C22.7859 15.0681 22.5182 14.5734 22.1005 14.1951C21.7208 13.8474 21.2071 13.6497 20.6696 13.6443H20.6678C20.544 13.6443 20.4239 13.656 20.3074 13.6759L20.3201 13.6743ZM36.3199 11.7973C36.3204 9.29064 37.4102 6.88682 39.3497 5.11466C40.31 4.23717 41.4501 3.54117 42.7047 3.06639C43.9593 2.59162 45.3039 2.34737 46.6618 2.34759C48.0196 2.34781 49.3642 2.59249 50.6186 3.06767C51.873 3.54285 53.0128 4.23921 53.9728 5.11701C54.9328 5.9948 55.6942 7.03684 56.2136 8.18362C56.733 9.33039 57.0002 10.5595 57 11.8006C56.9993 14.3077 55.909 16.7119 53.969 18.4842C52.029 20.2565 49.3982 21.2518 46.6554 21.2512C43.9126 21.2505 41.2824 20.2539 39.3434 18.4807C37.4044 16.7074 36.3155 14.3027 36.3163 11.7956L36.3199 11.7973ZM39.2817 11.7973C39.2817 12.6829 39.4726 13.5599 39.8434 14.3781C40.2142 15.1964 40.7576 15.9398 41.4428 16.5661C42.1279 17.1923 42.9413 17.6891 43.8364 18.028C44.7316 18.3669 45.691 18.5414 46.6599 18.5414C47.6289 18.5414 48.5883 18.3669 49.4835 18.028C50.3786 17.6891 51.192 17.1923 51.8771 16.5661C52.5623 15.9398 53.1057 15.1964 53.4765 14.3781C53.8473 13.5599 54.0382 12.6829 54.0382 11.7973C54.0384 10.0082 53.2611 8.29232 51.8772 7.02709C50.4934 5.76186 48.6163 5.05094 46.659 5.05071C44.7017 5.05049 42.8245 5.76099 41.4403 7.02591C40.0561 8.29083 39.2783 10.0065 39.2781 11.7956L39.2817 11.7973ZM45.1799 14.4946V13.1501H43.709C43.316 13.1501 42.9391 13.0074 42.6612 12.7534C42.3833 12.4994 42.2272 12.1549 42.2272 11.7956C42.2272 11.4364 42.3833 11.0919 42.6612 10.8379C42.9391 10.5839 43.316 10.4412 43.709 10.4412H45.1799V9.09667C45.1799 8.73744 45.3361 8.39292 45.614 8.13891C45.8919 7.8849 46.2688 7.74219 46.6618 7.74219C47.0548 7.74219 47.4317 7.8849 47.7096 8.13891C47.9875 8.39292 48.1436 8.73744 48.1436 9.09667V10.4412H49.6145C50.0075 10.4412 50.3844 10.5839 50.6623 10.8379C50.9402 11.0919 51.0963 11.4364 51.0963 11.7956C51.0963 12.1549 50.9402 12.4994 50.6623 12.7534C50.3844 13.0074 50.0075 13.1501 49.6145 13.1501H48.1436V14.4929C48.1436 14.8522 47.9875 15.1967 47.7096 15.4507C47.4317 15.7047 47.0548 15.8474 46.6618 15.8474C46.2688 15.8474 45.8919 15.7047 45.614 15.4507C45.3361 15.1967 45.1799 14.8522 45.1799 14.4929V14.4946Z" fill="#A80038"/>
</svg>
