<svg width="39" height="35" viewBox="0 0 39 35" fill="none" xmlns="http://www.w3.org/2000/svg">
<path d="M27.2227 17.5H31.1115V25.2778H27.2227V17.5Z" fill="#A80038"/>
<path d="M35 7.77778V3.88889C35 1.74417 33.2558 0 31.1111 0H5.83333C2.61722 0 0 2.61722 0 5.83333V29.1667C0 33.4464 3.48833 35 5.83333 35H35C37.1447 35 38.8889 33.2558 38.8889 31.1111V11.6667C38.8889 9.52194 37.1447 7.77778 35 7.77778ZM5.83333 3.88889H31.1111V7.77778H5.83333C5.33268 7.75538 4.85995 7.54074 4.51359 7.17853C4.16723 6.81633 3.97392 6.33449 3.97392 5.83333C3.97392 5.33218 4.16723 4.85033 4.51359 4.48813C4.85995 4.12593 5.33268 3.91128 5.83333 3.88889ZM35 31.1111H5.85667C4.95833 31.0878 3.88889 30.7319 3.88889 29.1667V11.3069C4.49944 11.5267 5.14694 11.6667 5.83333 11.6667H35V31.1111Z" fill="#A80038"/>
</svg>
